<svg width="128" height="128" viewBox="0 0 128 128" fill="none" xmlns="http://www.w3.org/2000/svg">
<g clip-path="url(#clip0_184_20)">
<rect width="128" height="128" rx="64" fill="white"/>
<rect width="128" height="128" fill="#0F172A"/>
<path d="M22.66 40V26H26.12L31.22 34.3L28.52 34.28L33.68 26H37.02V40H33.2V36.26C33.2 35.06 33.2267 33.98 33.28 33.02C33.3467 32.06 33.4533 31.1067 33.6 30.16L34.04 31.34L30.46 36.88H29.14L25.64 31.34L26.08 30.16C26.2267 31.0533 26.3267 31.9733 26.38 32.92C26.4467 33.8533 26.48 34.9667 26.48 36.26V40H22.66ZM45.2158 40.2C44.0024 40.2 42.9558 39.9667 42.0758 39.5C41.1958 39.02 40.5158 38.3667 40.0358 37.54C39.5558 36.7 39.3158 35.7467 39.3158 34.68C39.3158 33.88 39.4491 33.14 39.7158 32.46C39.9824 31.78 40.3558 31.1933 40.8358 30.7C41.3158 30.1933 41.8824 29.8067 42.5358 29.54C43.2024 29.26 43.9291 29.12 44.7158 29.12C45.4891 29.12 46.1891 29.2533 46.8158 29.52C47.4558 29.7867 48.0024 30.1667 48.4558 30.66C48.9224 31.1533 49.2758 31.7333 49.5158 32.4C49.7691 33.0667 49.8824 33.8 49.8558 34.6L49.8358 35.44H41.4358L40.9758 33.58H46.8558L46.4958 33.98V33.6C46.4958 33.3067 46.4158 33.0533 46.2558 32.84C46.1091 32.6133 45.9091 32.44 45.6558 32.32C45.4024 32.2 45.1158 32.14 44.7958 32.14C44.3424 32.14 43.9624 32.2333 43.6558 32.42C43.3624 32.5933 43.1358 32.8467 42.9758 33.18C42.8158 33.5133 42.7358 33.9133 42.7358 34.38C42.7358 34.9133 42.8424 35.3733 43.0558 35.76C43.2824 36.1467 43.6091 36.4467 44.0358 36.66C44.4758 36.8733 45.0091 36.98 45.6358 36.98C46.0491 36.98 46.4091 36.9267 46.7158 36.82C47.0358 36.7133 47.3758 36.5267 47.7358 36.26L49.4558 38.68C48.9891 39.0533 48.5158 39.3533 48.0358 39.58C47.5691 39.7933 47.1024 39.9467 46.6358 40.04C46.1691 40.1467 45.6958 40.2 45.2158 40.2ZM55.4345 40.2C54.3279 40.2 53.3545 40.0267 52.5145 39.68C51.6745 39.3333 51.0212 38.8867 50.5545 38.34L52.7345 36.46C53.1612 36.8467 53.6412 37.1333 54.1745 37.32C54.7212 37.5067 55.2012 37.6 55.6145 37.6C55.7612 37.6 55.8945 37.5867 56.0145 37.56C56.1345 37.5333 56.2279 37.4933 56.2945 37.44C56.3745 37.3733 56.4345 37.3067 56.4745 37.24C56.5279 37.16 56.5545 37.0733 56.5545 36.98C56.5545 36.7533 56.4412 36.58 56.2145 36.46C56.0945 36.4067 55.8945 36.34 55.6145 36.26C55.3479 36.1667 54.9879 36.0667 54.5345 35.96C53.9745 35.8133 53.4745 35.64 53.0345 35.44C52.5945 35.2267 52.2212 34.98 51.9145 34.7C51.6212 34.42 51.3879 34.1 51.2145 33.74C51.0545 33.3667 50.9745 32.96 50.9745 32.52C50.9745 31.9867 51.0945 31.5133 51.3345 31.1C51.5745 30.6867 51.9079 30.3333 52.3345 30.04C52.7612 29.7333 53.2412 29.5067 53.7745 29.36C54.3079 29.2 54.8545 29.12 55.4145 29.12C56.0412 29.12 56.6279 29.1867 57.1745 29.32C57.7345 29.44 58.2545 29.62 58.7345 29.86C59.2279 30.0867 59.6679 30.3667 60.0545 30.7L58.1345 32.82C57.9079 32.62 57.6412 32.4333 57.3345 32.26C57.0412 32.0867 56.7345 31.9467 56.4145 31.84C56.0945 31.72 55.7945 31.66 55.5145 31.66C55.3412 31.66 55.1945 31.6733 55.0745 31.7C54.9545 31.7267 54.8545 31.7667 54.7745 31.82C54.6945 31.8733 54.6345 31.94 54.5945 32.02C54.5545 32.1 54.5345 32.1867 54.5345 32.28C54.5345 32.4 54.5679 32.5133 54.6345 32.62C54.7012 32.7267 54.8079 32.8133 54.9545 32.88C55.0745 32.9467 55.2745 33.0333 55.5545 33.14C55.8479 33.2333 56.2679 33.3533 56.8145 33.5C57.4279 33.6733 57.9612 33.8733 58.4145 34.1C58.8679 34.3267 59.2345 34.5867 59.5145 34.88C59.7145 35.1067 59.8679 35.36 59.9745 35.64C60.0812 35.9067 60.1345 36.2067 60.1345 36.54C60.1345 37.2467 59.9279 37.88 59.5145 38.44C59.1145 38.9867 58.5612 39.42 57.8545 39.74C57.1479 40.0467 56.3412 40.2 55.4345 40.2ZM61.8336 40V25.2H65.4736V31.5L64.7136 31.74C64.8469 31.2333 65.1069 30.7867 65.4936 30.4C65.8803 30 66.3403 29.6867 66.8736 29.46C67.4069 29.2333 67.9669 29.12 68.5536 29.12C69.3536 29.12 70.0269 29.2867 70.5736 29.62C71.1336 29.94 71.5536 30.4267 71.8336 31.08C72.1269 31.72 72.2736 32.5067 72.2736 33.44V40H68.5536V33.74C68.5536 33.3933 68.5003 33.1067 68.3936 32.88C68.2869 32.64 68.1269 32.46 67.9136 32.34C67.7003 32.22 67.4469 32.1667 67.1536 32.18C66.9269 32.18 66.7136 32.2133 66.5136 32.28C66.3269 32.3467 66.1603 32.4533 66.0136 32.6C65.8669 32.7333 65.7536 32.8867 65.6736 33.06C65.6069 33.2333 65.5736 33.4267 65.5736 33.64V40H63.7136C63.2603 40 62.8736 40 62.5536 40C62.2469 40 62.0069 40 61.8336 40ZM78.76 40.18C77.88 40.18 77.0867 39.9467 76.38 39.48C75.6867 39 75.1333 38.3467 74.72 37.52C74.32 36.68 74.12 35.7267 74.12 34.66C74.12 33.5667 74.32 32.6067 74.72 31.78C75.12 30.9533 75.6733 30.3067 76.38 29.84C77.0867 29.36 77.9 29.12 78.82 29.12C79.3133 29.12 79.7667 29.1867 80.18 29.32C80.5933 29.4533 80.9533 29.6467 81.26 29.9C81.5667 30.1533 81.8333 30.44 82.06 30.76C82.2867 31.08 82.4733 31.4267 82.62 31.8L81.86 31.76V29.34H85.52V40H81.78V37.4L82.6 37.44C82.48 37.8267 82.3 38.1867 82.06 38.52C81.8333 38.8533 81.5533 39.1467 81.22 39.4C80.8867 39.64 80.5133 39.8333 80.1 39.98C79.7 40.1133 79.2533 40.18 78.76 40.18ZM79.82 37.12C80.2467 37.12 80.6133 37.0267 80.92 36.84C81.2267 36.64 81.46 36.3533 81.62 35.98C81.7933 35.6067 81.88 35.1667 81.88 34.66C81.88 34.14 81.7933 33.6933 81.62 33.32C81.46 32.9467 81.2267 32.6667 80.92 32.48C80.6133 32.28 80.2467 32.18 79.82 32.18C79.3933 32.18 79.0267 32.28 78.72 32.48C78.4267 32.6667 78.2 32.9467 78.04 33.32C77.88 33.6933 77.8 34.14 77.8 34.66C77.8 35.1667 77.88 35.6067 78.04 35.98C78.2 36.3533 78.4267 36.64 78.72 36.84C79.0267 37.0267 79.3933 37.12 79.82 37.12ZM88.318 40V29.34H91.798L91.998 32.84L91.218 32.24C91.3913 31.6533 91.658 31.1267 92.018 30.66C92.3913 30.18 92.838 29.8067 93.358 29.54C93.878 29.26 94.4246 29.12 94.998 29.12C95.238 29.12 95.4646 29.14 95.678 29.18C95.8913 29.2067 96.0913 29.2467 96.278 29.3L95.258 33.42C95.1113 33.3267 94.9046 33.2467 94.638 33.18C94.3713 33.1 94.0846 33.06 93.778 33.06C93.5113 33.06 93.2713 33.1067 93.058 33.2C92.8446 33.28 92.6646 33.4 92.518 33.56C92.3713 33.72 92.258 33.9133 92.178 34.14C92.098 34.3533 92.058 34.6067 92.058 34.9V40H88.318ZM97.9888 40V29.34H101.709V40H97.9888ZM99.8488 27.32C99.1688 27.32 98.6421 27.1667 98.2688 26.86C97.8954 26.54 97.7088 26.0933 97.7088 25.52C97.7088 24.9867 97.8954 24.5533 98.2688 24.22C98.6554 23.8733 99.1821 23.7 99.8488 23.7C100.515 23.7 101.035 23.86 101.409 24.18C101.795 24.4867 101.989 24.9333 101.989 25.52C101.989 26.0533 101.795 26.4867 101.409 26.82C101.022 27.1533 100.502 27.32 99.8488 27.32Z" fill="#FAF8F3"/>
<path d="M43.08 61.7C42.08 60.8467 41.16 60.42 40.32 60.42C39.96 60.42 39.66 60.52 39.42 60.72C39.1933 60.9067 39.08 61.1533 39.08 61.46C39.08 61.9 39.2267 62.2467 39.52 62.5C39.8133 62.74 40.3867 63 41.24 63.28C42.2533 63.6267 42.9533 63.9733 43.34 64.32C43.9 64.8133 44.18 65.4933 44.18 66.36C44.18 67.8133 43.52 68.94 42.2 69.74C41.0667 70.4467 39.6 70.8 37.8 70.8C35.52 70.8 33.8133 70.1533 32.68 68.86C31.8267 67.9 31.4 66.72 31.4 65.32C31.4 64.3067 31.6333 63.4067 32.1 62.62L34.86 62.04C34.3667 62.92 34.12 63.8533 34.12 64.84C34.12 65.8533 34.4333 66.6333 35.06 67.18C35.7 67.7267 36.6133 68 37.8 68C40.1333 68 41.3 67.4467 41.3 66.34C41.3 66.1 41.1933 65.9 40.98 65.74C40.7667 65.58 40.3333 65.3867 39.68 65.16C38.56 64.7733 37.78 64.3733 37.34 63.96C36.6733 63.3333 36.34 62.4933 36.34 61.44C36.34 60.2267 36.76 59.28 37.6 58.6C38.2267 58.08 38.9533 57.82 39.78 57.82C41.2067 57.82 42.3067 58.3 43.08 59.26V61.7ZM36.16 75.06C35.72 75.06 35.36 74.92 35.08 74.64C34.8133 74.3733 34.68 74.0133 34.68 73.56C34.68 73.12 34.8133 72.76 35.08 72.48C35.36 72.2133 35.72 72.08 36.16 72.08C36.6 72.08 36.9533 72.2133 37.22 72.48C37.5 72.76 37.64 73.12 37.64 73.56C37.64 74.0133 37.5067 74.3733 37.24 74.64C36.9733 74.92 36.6133 75.06 36.16 75.06ZM39.5 75.06C39.06 75.06 38.7 74.92 38.42 74.64C38.1533 74.3733 38.02 74.0133 38.02 73.56C38.02 73.12 38.1533 72.76 38.42 72.48C38.7 72.2133 39.06 72.08 39.5 72.08C39.94 72.08 40.2933 72.2133 40.56 72.48C40.84 72.76 40.98 73.12 40.98 73.56C40.98 74.0133 40.8467 74.3733 40.58 74.64C40.3133 74.92 39.9533 75.06 39.5 75.06ZM52.908 65.66C52.908 66.8067 52.6746 67.8 52.208 68.64C51.7413 69.4933 51.0813 70.1133 50.228 70.5C49.668 70.7667 49.0613 70.9 48.408 70.9C47.528 70.9 46.668 70.6667 45.828 70.2V67.68C46.5213 68.0667 47.1946 68.26 47.848 68.26C48.1813 68.26 48.488 68.2067 48.768 68.1C49.5813 67.82 49.988 67.0733 49.988 65.86V59.56L52.908 58V65.66ZM60.287 67C59.0604 67 58.1004 66.6067 57.407 65.82C56.807 65.1267 56.507 64.24 56.507 63.16V55.64L59.407 54.1V63.04C59.407 63.4667 59.4937 63.7667 59.667 63.94C59.8404 64.1133 60.1404 64.2 60.567 64.2H62.527V67H60.287ZM72.9722 53.1C72.5589 53.1 72.2255 52.98 71.9722 52.74C71.7322 52.4867 71.6122 52.1533 71.6122 51.74C71.6122 50.8467 72.0655 50.4 72.9722 50.4C73.8655 50.4 74.3122 50.8467 74.3122 51.74C74.3122 52.1533 74.1855 52.4867 73.9322 52.74C73.6922 52.98 73.3722 53.1 72.9722 53.1ZM71.3122 56.34C70.8722 56.34 70.5122 56.2 70.2322 55.92C69.9655 55.64 69.8322 55.2733 69.8322 54.82C69.8322 54.38 69.9655 54.0267 70.2322 53.76C70.5122 53.48 70.8722 53.34 71.3122 53.34C71.7522 53.34 72.1055 53.48 72.3722 53.76C72.6522 54.0267 72.7922 54.38 72.7922 54.82C72.7922 55.2867 72.6522 55.66 72.3722 55.94C72.1055 56.2067 71.7522 56.34 71.3122 56.34ZM74.6522 56.34C74.2122 56.34 73.8522 56.2 73.5722 55.92C73.3055 55.64 73.1722 55.2733 73.1722 54.82C73.1722 54.38 73.3055 54.0267 73.5722 53.76C73.8522 53.48 74.2122 53.34 74.6522 53.34C75.0922 53.34 75.4455 53.48 75.7122 53.76C75.9922 54.0267 76.1322 54.38 76.1322 54.82C76.1322 55.2867 75.9922 55.66 75.7122 55.94C75.4455 56.2067 75.0922 56.34 74.6522 56.34ZM61.4522 67V64.2H63.6922C64.1189 64.2 64.4122 64.12 64.5722 63.96C64.7455 63.7867 64.8322 63.48 64.8322 63.04V60.48L67.7322 58.94V63.04C67.7322 63.4667 67.8122 63.7667 67.9722 63.94C68.1455 64.1133 68.4522 64.2 68.8922 64.2H70.4322C70.8589 64.2 71.1589 64.1133 71.3322 63.94C71.5055 63.7667 71.5922 63.4667 71.5922 63.04V60L74.4922 58.48V63.04C74.4922 63.48 74.5722 63.7867 74.7322 63.96C74.9055 64.12 75.2055 64.2 75.6322 64.2H77.2122C77.6389 64.2 77.9322 64.12 78.0922 63.96C78.2655 63.7867 78.3522 63.48 78.3522 63.04V59.54L81.2722 58V62.62C81.2722 63.2067 81.3789 63.62 81.5922 63.86C81.8055 64.0867 82.1922 64.2 82.7522 64.2H84.6322V67H82.6122C81.5589 67 80.6789 66.72 79.9722 66.16C79.3722 66.68 78.5922 66.96 77.6322 67H75.3722C74.4522 67 73.6722 66.7533 73.0322 66.26C72.4455 66.7133 71.7255 66.96 70.8722 67H68.6122C67.6922 67 66.9122 66.7533 66.2722 66.26C65.6455 66.7533 64.8722 67 63.9522 67H61.4522ZM86.7011 61.42C86.7011 60.1933 87.0811 59.2333 87.8411 58.54C88.5078 57.94 89.3744 57.64 90.4411 57.64C91.7878 57.64 92.8344 58.1333 93.5811 59.12C94.2211 59.96 94.5411 61.0267 94.5411 62.32C94.5411 63.8 94.1344 64.9733 93.3211 65.84C92.6144 66.6133 91.7011 67 90.5811 67C89.5278 67 88.6744 66.8 88.0211 66.4C87.4211 66.8 86.6878 67 85.8211 67H83.5811V64.2H85.5411C85.9678 64.2 86.2678 64.1133 86.4411 63.94C86.6144 63.7667 86.7011 63.4667 86.7011 63.04V61.42ZM89.6011 63.42C89.6011 63.94 89.8811 64.2 90.4411 64.2C91.2678 64.2 91.6811 63.54 91.6811 62.22C91.6811 60.98 91.2678 60.36 90.4411 60.36C89.8811 60.36 89.6011 60.6867 89.6011 61.34V63.42Z" fill="#FAF8F3"/>
<path d="M50.76 102.175C50.6467 102.175 50.555 102.14 50.485 102.07C50.4183 102 50.385 101.908 50.385 101.795C50.385 101.685 50.4183 101.597 50.485 101.53C50.555 101.463 50.6467 101.43 50.76 101.43C50.87 101.43 50.9583 101.463 51.025 101.53C51.0917 101.597 51.125 101.685 51.125 101.795C51.125 101.912 51.0917 102.005 51.025 102.075C50.9583 102.142 50.87 102.175 50.76 102.175ZM51.59 102.175C51.48 102.175 51.39 102.14 51.32 102.07C51.2533 102 51.22 101.908 51.22 101.795C51.22 101.685 51.2533 101.597 51.32 101.53C51.39 101.463 51.48 101.43 51.59 101.43C51.7 101.43 51.7883 101.463 51.855 101.53C51.925 101.597 51.96 101.685 51.96 101.795C51.96 101.912 51.9267 102.005 51.86 102.075C51.7933 102.142 51.7033 102.175 51.59 102.175ZM52.4 104.3H52.89V105H52.33C52.0333 105 51.7983 104.908 51.625 104.725C51.4917 104.812 51.3283 104.855 51.135 104.855C50.8217 104.855 50.5717 104.738 50.385 104.505C50.2283 104.312 50.15 104.083 50.15 103.82C50.15 103.487 50.2617 103.215 50.485 103.005C50.665 102.832 50.875 102.745 51.115 102.745C51.205 102.745 51.295 102.758 51.385 102.785V102.685L52.11 102.305V104.01C52.11 104.117 52.1317 104.192 52.175 104.235C52.2183 104.278 52.2933 104.3 52.4 104.3ZM51.385 103.49C51.3217 103.45 51.25 103.43 51.17 103.43C51.0767 103.43 51.0017 103.467 50.945 103.54C50.8917 103.613 50.865 103.712 50.865 103.835C50.865 104.105 50.97 104.24 51.18 104.24C51.2733 104.24 51.3433 104.213 51.39 104.16C51.3867 104.133 51.385 104.093 51.385 104.04V103.49ZM52.6189 105V104.3H53.1089C53.2156 104.3 53.2906 104.278 53.3339 104.235C53.3772 104.192 53.3989 104.117 53.3989 104.01V103.135L54.1239 102.75V104.04C54.1239 104.35 54.0272 104.593 53.8339 104.77C53.6672 104.923 53.4489 105 53.1789 105H52.6189ZM52.8789 106.175C52.7656 106.175 52.6756 106.14 52.6089 106.07C52.5389 106 52.5039 105.908 52.5039 105.795C52.5039 105.685 52.5389 105.597 52.6089 105.53C52.6756 105.463 52.7656 105.43 52.8789 105.43C52.9889 105.43 53.0772 105.463 53.1439 105.53C53.2106 105.597 53.2439 105.685 53.2439 105.795C53.2439 105.912 53.2106 106.003 53.1439 106.07C53.0772 106.14 52.9889 106.175 52.8789 106.175ZM53.7089 106.175C53.5989 106.175 53.5089 106.14 53.4389 106.07C53.3722 106 53.3389 105.908 53.3389 105.795C53.3389 105.685 53.3722 105.597 53.4389 105.53C53.5089 105.463 53.5989 105.43 53.7089 105.43C53.8189 105.43 53.9072 105.463 53.9739 105.53C54.0439 105.597 54.0789 105.685 54.0789 105.795C54.0789 105.912 54.0456 106.003 53.9789 106.07C53.9122 106.14 53.8222 106.175 53.7089 106.175ZM56.3373 104.665C56.3373 104.952 56.279 105.2 56.1623 105.41C56.0457 105.623 55.8807 105.778 55.6673 105.875C55.5273 105.942 55.3757 105.975 55.2123 105.975C54.9923 105.975 54.7773 105.917 54.5673 105.8V105.17C54.7407 105.267 54.909 105.315 55.0723 105.315C55.1557 105.315 55.2323 105.302 55.3023 105.275C55.5057 105.205 55.6073 105.018 55.6073 104.715V103.14L56.3373 102.75V104.665ZM58.1821 105C57.8754 105 57.6354 104.902 57.4621 104.705C57.3121 104.532 57.2371 104.31 57.2371 104.04V102.16L57.9621 101.775V104.01C57.9621 104.117 57.9838 104.192 58.0271 104.235C58.0704 104.278 58.1454 104.3 58.2521 104.3H58.7421V105H58.1821ZM58.4734 105V104.3H59.2284C59.7717 104.3 60.2067 104.147 60.5334 103.84C60.3234 103.5 60.0767 103.33 59.7934 103.33C59.5367 103.33 59.2401 103.475 58.9034 103.765V103.135C59.1867 102.818 59.5084 102.66 59.8684 102.66H59.8784C60.1451 102.66 60.4034 102.757 60.6534 102.95C60.9034 103.14 61.1251 103.412 61.3184 103.765V104.03C61.0751 104.34 60.7717 104.58 60.4084 104.75C60.0451 104.917 59.6501 105 59.2234 105H58.4734ZM60.0584 106.175C59.9451 106.175 59.8534 106.14 59.7834 106.07C59.7167 106.003 59.6834 105.913 59.6834 105.8C59.6834 105.687 59.7167 105.597 59.7834 105.53C59.8534 105.463 59.9451 105.43 60.0584 105.43C60.1684 105.43 60.2567 105.463 60.3234 105.53C60.3901 105.597 60.4234 105.687 60.4234 105.8C60.4234 105.913 60.3901 106.003 60.3234 106.07C60.2567 106.14 60.1684 106.175 60.0584 106.175ZM63.5627 102.175C63.4494 102.175 63.3577 102.14 63.2877 102.07C63.2211 102 63.1877 101.908 63.1877 101.795C63.1877 101.685 63.2211 101.597 63.2877 101.53C63.3577 101.463 63.4494 101.43 63.5627 101.43C63.6727 101.43 63.7611 101.463 63.8277 101.53C63.8944 101.597 63.9277 101.685 63.9277 101.795C63.9277 101.912 63.8944 102.005 63.8277 102.075C63.7611 102.142 63.6727 102.175 63.5627 102.175ZM64.3927 102.175C64.2827 102.175 64.1927 102.14 64.1227 102.07C64.0561 102 64.0227 101.908 64.0227 101.795C64.0227 101.685 64.0561 101.597 64.1227 101.53C64.1927 101.463 64.2827 101.43 64.3927 101.43C64.5027 101.43 64.5911 101.463 64.6577 101.53C64.7277 101.597 64.7627 101.685 64.7627 101.795C64.7627 101.912 64.7294 102.005 64.6627 102.075C64.5961 102.142 64.5061 102.175 64.3927 102.175ZM65.2027 104.3H65.6927V105H65.1327C64.8361 105 64.6011 104.908 64.4277 104.725C64.2944 104.812 64.1311 104.855 63.9377 104.855C63.6244 104.855 63.3744 104.738 63.1877 104.505C63.0311 104.312 62.9527 104.083 62.9527 103.82C62.9527 103.487 63.0644 103.215 63.2877 103.005C63.4677 102.832 63.6777 102.745 63.9177 102.745C64.0077 102.745 64.0977 102.758 64.1877 102.785V102.685L64.9127 102.305V104.01C64.9127 104.117 64.9344 104.192 64.9777 104.235C65.0211 104.278 65.0961 104.3 65.2027 104.3ZM64.1877 103.49C64.1244 103.45 64.0527 103.43 63.9727 103.43C63.8794 103.43 63.8044 103.467 63.7477 103.54C63.6944 103.613 63.6677 103.712 63.6677 103.835C63.6677 104.105 63.7727 104.24 63.9827 104.24C64.0761 104.24 64.1461 104.213 64.1927 104.16C64.1894 104.133 64.1877 104.093 64.1877 104.04V103.49ZM66.6666 102.385C66.5533 102.385 66.4616 102.35 66.3916 102.28C66.325 102.21 66.2916 102.118 66.2916 102.005C66.2916 101.895 66.325 101.807 66.3916 101.74C66.4616 101.673 66.5533 101.64 66.6666 101.64C66.7766 101.64 66.865 101.673 66.9316 101.74C66.9983 101.807 67.0316 101.895 67.0316 102.005C67.0316 102.122 66.9983 102.215 66.9316 102.285C66.865 102.352 66.7766 102.385 66.6666 102.385ZM67.4966 102.385C67.3833 102.385 67.2933 102.35 67.2266 102.28C67.16 102.21 67.1266 102.118 67.1266 102.005C67.1266 101.895 67.16 101.807 67.2266 101.74C67.2933 101.673 67.3833 101.64 67.4966 101.64C67.6066 101.64 67.695 101.673 67.7616 101.74C67.8316 101.807 67.8666 101.895 67.8666 102.005C67.8666 102.122 67.8316 102.215 67.7616 102.285C67.695 102.352 67.6066 102.385 67.4966 102.385ZM65.4216 105V104.3H66.1616C66.0883 104.167 66.0516 104.01 66.0516 103.83C66.0516 103.457 66.1533 103.163 66.3566 102.95C66.54 102.757 66.78 102.66 67.0766 102.66C67.38 102.66 67.6166 102.757 67.7866 102.95C67.9366 103.12 68.0116 103.338 68.0116 103.605V104.045C68.0116 104.332 67.925 104.563 67.7516 104.74C67.585 104.913 67.3566 105 67.0666 105H65.4216ZM67.2866 103.585C67.2866 103.422 67.2166 103.34 67.0766 103.34C66.87 103.34 66.7666 103.495 66.7666 103.805C66.7666 104.135 66.8666 104.3 67.0666 104.3C67.2133 104.3 67.2866 104.22 67.2866 104.06V103.585ZM68.4631 105L68.8281 104.3H69.5731C69.7064 104.3 69.7731 104.225 69.7731 104.075C69.7731 103.745 69.6098 103.488 69.2831 103.305L69.6381 102.695C70.1514 102.992 70.4348 103.395 70.4881 103.905C70.5081 104.065 70.5414 104.172 70.5881 104.225C70.6381 104.275 70.7331 104.3 70.8731 104.3H71.2731V105H70.8381C70.5948 105 70.3898 104.94 70.2231 104.82C70.0998 104.94 69.9281 105 69.7081 105H68.4631ZM72.7327 104.3C72.896 103.827 73.131 103.442 73.4377 103.145C73.7777 102.822 74.1644 102.66 74.5977 102.66C75.001 102.66 75.3227 102.8 75.5627 103.08C75.766 103.313 75.8677 103.602 75.8677 103.945V104.045C75.8677 104.355 75.771 104.597 75.5777 104.77C75.4077 104.923 75.1894 105 74.9227 105H72.7277C72.4944 105 72.301 104.943 72.1477 104.83C71.9877 104.943 71.7927 105 71.5627 105H71.0027V104.3H71.4927C71.5994 104.3 71.6744 104.278 71.7177 104.235C71.761 104.192 71.7827 104.117 71.7827 104.01V103.37L72.5077 102.985V104.01C72.5077 104.19 72.5827 104.287 72.7327 104.3ZM75.1427 104.005V103.945C75.1427 103.765 75.0927 103.62 74.9927 103.51C74.8927 103.397 74.7627 103.34 74.6027 103.34C74.3727 103.34 74.1544 103.427 73.9477 103.6C73.7444 103.77 73.581 104.003 73.4577 104.3H74.8977C74.9977 104.3 75.0627 104.282 75.0927 104.245C75.126 104.208 75.1427 104.128 75.1427 104.005Z" fill="#FAF8F3"/>
<path d="M40.54 95.05C40.2767 95.05 40.04 94.99 39.83 94.87C39.6233 94.75 39.46 94.5867 39.34 94.38C39.22 94.17 39.16 93.9317 39.16 93.665C39.16 93.3983 39.22 93.1617 39.34 92.955C39.46 92.745 39.6233 92.58 39.83 92.46C40.04 92.34 40.2767 92.28 40.54 92.28C40.78 92.28 41 92.3183 41.2 92.395C41.4033 92.4717 41.565 92.5817 41.685 92.725L41.18 93.325C41.1433 93.2783 41.0967 93.2367 41.04 93.2C40.9833 93.16 40.92 93.13 40.85 93.11C40.7833 93.0867 40.7083 93.075 40.625 93.075C40.515 93.075 40.4183 93.1 40.335 93.15C40.2517 93.2 40.1867 93.27 40.14 93.36C40.0967 93.4467 40.075 93.5467 40.075 93.66C40.075 93.7733 40.0967 93.8733 40.14 93.96C40.1833 94.0467 40.2467 94.1167 40.33 94.17C40.4167 94.2233 40.515 94.25 40.625 94.25C40.7083 94.25 40.7833 94.24 40.85 94.22C40.92 94.2 40.9817 94.1717 41.035 94.135C41.0917 94.0983 41.14 94.055 41.18 94.005L41.685 94.61C41.5617 94.75 41.3983 94.8583 41.195 94.935C40.995 95.0117 40.7767 95.05 40.54 95.05ZM43.384 95.05C43.1007 95.05 42.8474 94.99 42.624 94.87C42.4007 94.75 42.2257 94.5867 42.099 94.38C41.9724 94.1733 41.909 93.935 41.909 93.665C41.909 93.395 41.9724 93.1567 42.099 92.95C42.2257 92.7433 42.4007 92.58 42.624 92.46C42.8474 92.34 43.1007 92.28 43.384 92.28C43.6674 92.28 43.919 92.34 44.139 92.46C44.3624 92.58 44.5374 92.7433 44.664 92.95C44.7907 93.1567 44.854 93.395 44.854 93.665C44.854 93.935 44.7907 94.1733 44.664 94.38C44.5374 94.5867 44.3624 94.75 44.139 94.87C43.919 94.99 43.6674 95.05 43.384 95.05ZM43.384 94.265C43.484 94.265 43.574 94.24 43.654 94.19C43.7374 94.1367 43.8007 94.065 43.844 93.975C43.8907 93.8817 43.914 93.7783 43.914 93.665C43.914 93.545 43.8907 93.44 43.844 93.35C43.8007 93.26 43.7374 93.19 43.654 93.14C43.574 93.0867 43.484 93.06 43.384 93.06C43.2807 93.06 43.189 93.0867 43.109 93.14C43.029 93.19 42.9657 93.2617 42.919 93.355C42.8724 93.445 42.849 93.5483 42.849 93.665C42.849 93.7783 42.8724 93.8817 42.919 93.975C42.9657 94.065 43.029 94.1367 43.109 94.19C43.189 94.24 43.2807 94.265 43.384 94.265ZM45.3607 95V92.335H46.2307L46.2707 92.875L46.0807 92.935C46.1141 92.8083 46.1791 92.6967 46.2757 92.6C46.3724 92.5 46.4874 92.4217 46.6207 92.365C46.7541 92.3083 46.8941 92.28 47.0407 92.28C47.2407 92.28 47.4091 92.3217 47.5457 92.405C47.6857 92.485 47.7907 92.6067 47.8607 92.77C47.9341 92.93 47.9707 93.1267 47.9707 93.36V95H47.0407V93.435C47.0407 93.3483 47.0274 93.2767 47.0007 93.22C46.9741 93.16 46.9341 93.115 46.8807 93.085C46.8274 93.055 46.7641 93.0417 46.6907 93.045C46.6341 93.045 46.5807 93.0533 46.5307 93.07C46.4841 93.0867 46.4424 93.1133 46.4057 93.15C46.3691 93.1833 46.3407 93.2217 46.3207 93.265C46.3041 93.3083 46.2957 93.3567 46.2957 93.41V95H45.8307C45.7174 95 45.6207 95 45.5407 95C45.4641 95 45.4041 95 45.3607 95ZM48.8023 95V91.66H49.7323V95H48.8023ZM48.3623 93.125V92.335H50.1973V93.125H48.3623ZM50.6837 95V92.335H51.6137V95H50.6837ZM51.1487 91.83C50.9787 91.83 50.847 91.7917 50.7537 91.715C50.6604 91.635 50.6137 91.5233 50.6137 91.38C50.6137 91.2467 50.6604 91.1383 50.7537 91.055C50.8504 90.9683 50.982 90.925 51.1487 90.925C51.3154 90.925 51.4454 90.965 51.5387 91.045C51.6354 91.1217 51.6837 91.2333 51.6837 91.38C51.6837 91.5133 51.6354 91.6217 51.5387 91.705C51.442 91.7883 51.312 91.83 51.1487 91.83ZM52.3432 95V92.335H53.2132L53.2532 92.875L53.0632 92.935C53.0965 92.8083 53.1615 92.6967 53.2582 92.6C53.3548 92.5 53.4698 92.4217 53.6032 92.365C53.7365 92.3083 53.8765 92.28 54.0232 92.28C54.2232 92.28 54.3915 92.3217 54.5282 92.405C54.6682 92.485 54.7732 92.6067 54.8432 92.77C54.9165 92.93 54.9532 93.1267 54.9532 93.36V95H54.0232V93.435C54.0232 93.3483 54.0098 93.2767 53.9832 93.22C53.9565 93.16 53.9165 93.115 53.8632 93.085C53.8098 93.055 53.7465 93.0417 53.6732 93.045C53.6165 93.045 53.5632 93.0533 53.5132 93.07C53.4665 93.0867 53.4248 93.1133 53.3882 93.15C53.3515 93.1833 53.3232 93.2217 53.3032 93.265C53.2865 93.3083 53.2782 93.3567 53.2782 93.41V95H52.8132C52.6998 95 52.6032 95 52.5232 95C52.4465 95 52.3865 95 52.3432 95ZM56.5098 95.055C56.3098 95.055 56.1398 95.0133 55.9998 94.93C55.8598 94.8433 55.7531 94.72 55.6798 94.56C55.6064 94.4 55.5698 94.2067 55.5698 93.98V92.335H56.4998V93.885C56.4998 93.9717 56.5148 94.045 56.5448 94.105C56.5748 94.165 56.6164 94.2117 56.6698 94.245C56.7231 94.275 56.7881 94.29 56.8648 94.29C56.9248 94.29 56.9781 94.2817 57.0248 94.265C57.0748 94.2483 57.1164 94.2233 57.1498 94.19C57.1831 94.1533 57.2098 94.1133 57.2298 94.07C57.2498 94.0233 57.2598 93.9733 57.2598 93.92V92.335H58.1898V95H57.3298L57.2798 94.46L57.4548 94.4C57.4181 94.5233 57.3531 94.635 57.2598 94.735C57.1664 94.835 57.0548 94.9133 56.9248 94.97C56.7948 95.0267 56.6564 95.055 56.5098 95.055ZM60.1858 95.05C59.9024 95.05 59.6491 94.99 59.4258 94.87C59.2024 94.75 59.0274 94.5867 58.9008 94.38C58.7741 94.1733 58.7108 93.935 58.7108 93.665C58.7108 93.395 58.7741 93.1567 58.9008 92.95C59.0274 92.7433 59.2024 92.58 59.4258 92.46C59.6491 92.34 59.9024 92.28 60.1858 92.28C60.4691 92.28 60.7208 92.34 60.9408 92.46C61.1641 92.58 61.3391 92.7433 61.4658 92.95C61.5924 93.1567 61.6558 93.395 61.6558 93.665C61.6558 93.935 61.5924 94.1733 61.4658 94.38C61.3391 94.5867 61.1641 94.75 60.9408 94.87C60.7208 94.99 60.4691 95.05 60.1858 95.05ZM60.1858 94.265C60.2858 94.265 60.3758 94.24 60.4558 94.19C60.5391 94.1367 60.6024 94.065 60.6458 93.975C60.6924 93.8817 60.7158 93.7783 60.7158 93.665C60.7158 93.545 60.6924 93.44 60.6458 93.35C60.6024 93.26 60.5391 93.19 60.4558 93.14C60.3758 93.0867 60.2858 93.06 60.1858 93.06C60.0824 93.06 59.9908 93.0867 59.9108 93.14C59.8308 93.19 59.7674 93.2617 59.7208 93.355C59.6741 93.445 59.6508 93.5483 59.6508 93.665C59.6508 93.7783 59.6741 93.8817 59.7208 93.975C59.7674 94.065 59.8308 94.1367 59.9108 94.19C59.9908 94.24 60.0824 94.265 60.1858 94.265ZM63.0625 95.055C62.8625 95.055 62.6925 95.0133 62.5525 94.93C62.4125 94.8433 62.3058 94.72 62.2325 94.56C62.1592 94.4 62.1225 94.2067 62.1225 93.98V92.335H63.0525V93.885C63.0525 93.9717 63.0675 94.045 63.0975 94.105C63.1275 94.165 63.1692 94.2117 63.2225 94.245C63.2758 94.275 63.3408 94.29 63.4175 94.29C63.4775 94.29 63.5308 94.2817 63.5775 94.265C63.6275 94.2483 63.6692 94.2233 63.7025 94.19C63.7358 94.1533 63.7625 94.1133 63.7825 94.07C63.8025 94.0233 63.8125 93.9733 63.8125 93.92V92.335H64.7425V95H63.8825L63.8325 94.46L64.0075 94.4C63.9708 94.5233 63.9058 94.635 63.8125 94.735C63.7192 94.835 63.6075 94.9133 63.4775 94.97C63.3475 95.0267 63.2092 95.055 63.0625 95.055ZM66.3635 95.05C66.0868 95.05 65.8435 95.0067 65.6335 94.92C65.4235 94.8333 65.2602 94.7217 65.1435 94.585L65.6885 94.115C65.7952 94.2117 65.9152 94.2833 66.0485 94.33C66.1852 94.3767 66.3052 94.4 66.4085 94.4C66.4452 94.4 66.4785 94.3967 66.5085 94.39C66.5385 94.3833 66.5618 94.3733 66.5785 94.36C66.5985 94.3433 66.6135 94.3267 66.6235 94.31C66.6368 94.29 66.6435 94.2683 66.6435 94.245C66.6435 94.1883 66.6152 94.145 66.5585 94.115C66.5285 94.1017 66.4785 94.085 66.4085 94.065C66.3418 94.0417 66.2518 94.0167 66.1385 93.99C65.9985 93.9533 65.8735 93.91 65.7635 93.86C65.6535 93.8067 65.5602 93.745 65.4835 93.675C65.4102 93.605 65.3518 93.525 65.3085 93.435C65.2685 93.3417 65.2485 93.24 65.2485 93.13C65.2485 92.9967 65.2785 92.8783 65.3385 92.775C65.3985 92.6717 65.4818 92.5833 65.5885 92.51C65.6952 92.4333 65.8152 92.3767 65.9485 92.34C66.0818 92.3 66.2185 92.28 66.3585 92.28C66.5152 92.28 66.6618 92.2967 66.7985 92.33C66.9385 92.36 67.0685 92.405 67.1885 92.465C67.3118 92.5217 67.4218 92.5917 67.5185 92.675L67.0385 93.205C66.9818 93.155 66.9152 93.1083 66.8385 93.065C66.7652 93.0217 66.6885 92.9867 66.6085 92.96C66.5285 92.93 66.4535 92.915 66.3835 92.915C66.3402 92.915 66.3035 92.9183 66.2735 92.925C66.2435 92.9317 66.2185 92.9417 66.1985 92.955C66.1785 92.9683 66.1635 92.985 66.1535 93.005C66.1435 93.025 66.1385 93.0467 66.1385 93.07C66.1385 93.1 66.1468 93.1283 66.1635 93.155C66.1802 93.1817 66.2068 93.2033 66.2435 93.22C66.2735 93.2367 66.3235 93.2583 66.3935 93.285C66.4668 93.3083 66.5718 93.3383 66.7085 93.375C66.8618 93.4183 66.9952 93.4683 67.1085 93.525C67.2218 93.5817 67.3135 93.6467 67.3835 93.72C67.4335 93.7767 67.4718 93.84 67.4985 93.91C67.5252 93.9767 67.5385 94.0517 67.5385 94.135C67.5385 94.3117 67.4868 94.47 67.3835 94.61C67.2835 94.7467 67.1452 94.855 66.9685 94.935C66.7918 95.0117 66.5902 95.05 66.3635 95.05ZM70.8427 95.05C70.5794 95.05 70.3427 94.99 70.1327 94.87C69.9261 94.75 69.7627 94.5867 69.6427 94.38C69.5227 94.17 69.4627 93.9317 69.4627 93.665C69.4627 93.3983 69.5227 93.1617 69.6427 92.955C69.7627 92.745 69.9261 92.58 70.1327 92.46C70.3427 92.34 70.5794 92.28 70.8427 92.28C71.0827 92.28 71.3027 92.3183 71.5027 92.395C71.7061 92.4717 71.8677 92.5817 71.9877 92.725L71.4827 93.325C71.4461 93.2783 71.3994 93.2367 71.3427 93.2C71.2861 93.16 71.2227 93.13 71.1527 93.11C71.0861 93.0867 71.0111 93.075 70.9277 93.075C70.8177 93.075 70.7211 93.1 70.6377 93.15C70.5544 93.2 70.4894 93.27 70.4427 93.36C70.3994 93.4467 70.3777 93.5467 70.3777 93.66C70.3777 93.7733 70.3994 93.8733 70.4427 93.96C70.4861 94.0467 70.5494 94.1167 70.6327 94.17C70.7194 94.2233 70.8177 94.25 70.9277 94.25C71.0111 94.25 71.0861 94.24 71.1527 94.22C71.2227 94.2 71.2844 94.1717 71.3377 94.135C71.3944 94.0983 71.4427 94.055 71.4827 94.005L71.9877 94.61C71.8644 94.75 71.7011 94.8583 71.4977 94.935C71.2977 95.0117 71.0794 95.05 70.8427 95.05ZM72.4018 95V91.3H73.3118V92.875L73.1218 92.935C73.1551 92.8083 73.2201 92.6967 73.3168 92.6C73.4134 92.5 73.5284 92.4217 73.6618 92.365C73.7951 92.3083 73.9351 92.28 74.0818 92.28C74.2818 92.28 74.4501 92.3217 74.5868 92.405C74.7268 92.485 74.8318 92.6067 74.9018 92.77C74.9751 92.93 75.0118 93.1267 75.0118 93.36V95H74.0818V93.435C74.0818 93.3483 74.0684 93.2767 74.0418 93.22C74.0151 93.16 73.9751 93.115 73.9218 93.085C73.8684 93.055 73.8051 93.0417 73.7318 93.045C73.6751 93.045 73.6218 93.0533 73.5718 93.07C73.5251 93.0867 73.4834 93.1133 73.4468 93.15C73.4101 93.1833 73.3818 93.2217 73.3618 93.265C73.3451 93.3083 73.3368 93.3567 73.3368 93.41V95H72.8718C72.7584 95 72.6618 95 72.5818 95C72.5051 95 72.4451 95 72.4018 95ZM76.6334 95.045C76.4134 95.045 76.215 94.9867 76.0384 94.87C75.865 94.75 75.7267 94.5867 75.6234 94.38C75.5234 94.17 75.4734 93.9317 75.4734 93.665C75.4734 93.3917 75.5234 93.1517 75.6234 92.945C75.7234 92.7383 75.8617 92.5767 76.0384 92.46C76.215 92.34 76.4184 92.28 76.6484 92.28C76.7717 92.28 76.885 92.2967 76.9884 92.33C77.0917 92.3633 77.1817 92.4117 77.2584 92.475C77.335 92.5383 77.4017 92.61 77.4584 92.69C77.515 92.77 77.5617 92.8567 77.5984 92.95L77.4084 92.94V92.335H78.3234V95H77.3884V94.35L77.5934 94.36C77.5634 94.4567 77.5184 94.5467 77.4584 94.63C77.4017 94.7133 77.3317 94.7867 77.2484 94.85C77.165 94.91 77.0717 94.9583 76.9684 94.995C76.8684 95.0283 76.7567 95.045 76.6334 95.045ZM76.8984 94.28C77.005 94.28 77.0967 94.2567 77.1734 94.21C77.25 94.16 77.3084 94.0883 77.3484 93.995C77.3917 93.9017 77.4134 93.7917 77.4134 93.665C77.4134 93.535 77.3917 93.4233 77.3484 93.33C77.3084 93.2367 77.25 93.1667 77.1734 93.12C77.0967 93.07 77.005 93.045 76.8984 93.045C76.7917 93.045 76.7 93.07 76.6234 93.12C76.55 93.1667 76.4934 93.2367 76.4534 93.33C76.4134 93.4233 76.3934 93.535 76.3934 93.665C76.3934 93.7917 76.4134 93.9017 76.4534 93.995C76.4934 94.0883 76.55 94.16 76.6234 94.21C76.7 94.2567 76.7917 94.28 76.8984 94.28ZM79.0229 95V92.335H79.8929L79.9429 93.21L79.7479 93.06C79.7912 92.9133 79.8579 92.7817 79.9479 92.665C80.0412 92.545 80.1529 92.4517 80.2829 92.385C80.4129 92.315 80.5495 92.28 80.6929 92.28C80.7529 92.28 80.8095 92.285 80.8629 92.295C80.9162 92.3017 80.9662 92.3117 81.0129 92.325L80.7579 93.355C80.7212 93.3317 80.6695 93.3117 80.6029 93.295C80.5362 93.275 80.4645 93.265 80.3879 93.265C80.3212 93.265 80.2612 93.2767 80.2079 93.3C80.1545 93.32 80.1095 93.35 80.0729 93.39C80.0362 93.43 80.0079 93.4783 79.9879 93.535C79.9679 93.5883 79.9579 93.6517 79.9579 93.725V95H79.0229ZM81.4405 95V92.335H82.3705V95H81.4405ZM81.9055 91.83C81.7355 91.83 81.6039 91.7917 81.5105 91.715C81.4172 91.635 81.3705 91.5233 81.3705 91.38C81.3705 91.2467 81.4172 91.1383 81.5105 91.055C81.6072 90.9683 81.7389 90.925 81.9055 90.925C82.0722 90.925 82.2022 90.965 82.2955 91.045C82.3922 91.1217 82.4405 91.2333 82.4405 91.38C82.4405 91.5133 82.3922 91.6217 82.2955 91.705C82.1989 91.7883 82.0689 91.83 81.9055 91.83ZM83.275 95V91.66H84.205V95H83.275ZM82.835 93.125V92.335H84.67V93.125H82.835ZM85.4164 96.15L86.0564 94.64L86.0664 95.05L84.8014 92.335H85.8414L86.2864 93.395C86.323 93.4783 86.3547 93.5617 86.3814 93.645C86.4114 93.725 86.433 93.8017 86.4464 93.875L86.3414 93.955C86.3547 93.9117 86.3747 93.8517 86.4014 93.775C86.428 93.6983 86.458 93.61 86.4914 93.51L86.8964 92.335H87.9414L86.7864 95L86.3214 96.15H85.4164Z" fill="#FAF8F3"/>
</g>
<defs>
<clipPath id="clip0_184_20">
<rect width="128" height="128" rx="64" fill="white"/>
</clipPath>
</defs>
</svg>
